<?xml version="1.0" encoding="utf-8"?>
<!-- Generator: Adobe Illustrator 24.2.3, SVG Export Plug-In . SVG Version: 6.00 Build 0)  -->
<svg version="1.1" id="Ebene_1" xmlns="http://www.w3.org/2000/svg" xmlns:xlink="http://www.w3.org/1999/xlink" x="0px" y="0px"
	 viewBox="0 0 211.9 358" style="enable-background:new 0 0 211.9 358;" xml:space="preserve">
<style type="text/css">
	.st0{fill:#FFFFFF;}
	.st1{fill:url(#SVGID_1_);}
</style>
<g>
	<path class="st0" d="M104.6,0c21.8,0.4,43.5,1.3,64.7,6.7c4.1,1.1,8.2,2.5,12.2,4.3c5.7,2.5,10,6.5,12,12.6
		c5.6,17.1,13.1,33.9,16.6,51.5c6.4,32.5-3.4,61.4-25,86.2c-14.5,16.6-33.1,26.9-54.6,31.6c-3.8,0.8-4.8,2.4-4.7,6
		c0.4,33.5,0.6,67.1,1.2,100.6c0.2,12.5,0.7,12.2,12.4,15.3c8.3,2.2,16.5,5,24.3,8.4c6,2.6,11.9,6.8,11.7,14.2
		c-0.2,7.5-6.7,10.6-12.8,13.1c-14.5,5.9-29.9,7.1-45.4,7.4c-19.7,0.4-39.5,0.6-58.9-4.4c-5.7-1.5-11.4-3.7-16.4-6.8
		c-9-5.5-9.2-13.7-0.8-20.2c9.9-7.6,21.6-10.6,33.6-12.7c7.8-1.4,8.3-1.3,8.6-9.4c1.2-30.5,2-61.1,2.9-91.6c0.1-5-0.2-10-0.3-14.9
		c0-2.9-1.3-4.2-4.3-4.9C34.2,181.7,2.7,143.7,0.1,95.3C-0.9,76.8,5,60,11,43.1c2.4-6.7,5.5-13.2,7.8-19.9c2.4-6.9,7-11.6,13.7-13.4
		C44.8,6.7,57.3,3.7,69.8,2C81.3,0.4,93,0.6,104.6,0z M53.3,336.1c20.9,9.3,89.8,9.2,104.4-0.8c-10-2.7-18.8-5.9-27.8-7.2
		c-11.9-1.7-13.9-1.8-16.6-16.7c-0.2-0.8-0.2-1.6-0.3-2.5c-0.8-14.3-2.1-28.5-2.2-42.8c-0.2-24.6,0-49.2,0.7-73.7
		c0.3-10.7,1.6-11.2,12.2-13.2c56-10.5,82-65.6,70.9-106.8c-3.2-11.9-7.5-23.6-10.9-34.5C131.3,51.3,80.4,51.1,29.1,37.6
		c-1.1,2.7-2.5,5.8-3.6,9.1c-2.9,9-6.2,17.9-8.3,27.1C15.6,80.7,14.7,88,15.1,95c2.2,43.4,32.2,77,75,84.5c7.7,1.4,9.6,3.3,9.8,11.1
		c0.4,20.9,1.3,41.9,0.8,62.8c-0.5,19.9-2,39.8-3.8,59.6c-1.1,11.8-3.8,13.4-15.4,14.7C71.8,328.8,62.6,331.2,53.3,336.1z
		 M173.4,24.7C146.3,11.5,54.7,12.9,37.7,24.8C83.7,35.5,128.5,35.6,173.4,24.7z"/>
	<linearGradient id="SVGID_1_" gradientUnits="userSpaceOnUse" x1="31.9882" y1="121.645" x2="183.8386" y2="121.645">
		<stop  offset="0" style="stop-color:#FF0844"/>
		<stop  offset="1" style="stop-color:#FFB199"/>
	</linearGradient>
	<path class="st1" d="M107.8,167.2c-42.3,0-75.1-32.3-75.8-74.7c-0.1-7,4.6-10.9,10.4-8c21,10.2,41.9,7.6,62.7-0.1
		c15.6-5.8,31.6-9.7,48.1-7.6c8.5,1.1,16.9,4.4,25.1,7.2c4.2,1.4,5.6,5,5.5,9.6C182.4,135.5,149.7,167.2,107.8,167.2z"/>
</g>
</svg>
